<svg xmlns="http://www.w3.org/2000/svg" width="200" height="52" viewBox="0 0 200 52" fill="none">
  <!-- Bookando Mono Orange — all in #F59E0B -->

  <polygon points="26,2 48,14 48,38 26,50 4,38 4,14" fill="#F59E0B"/>

  <path d="M 19.0,37.5 L 19.0,20.5 C 19.0,17.5 21.0,16.0 24.0,16.0 C 28.0,16.0 32.0,18.0 34.5,21.5 C 37.0,25.0 38.0,29.0 38.0,32.5 C 38.0,36.5 36.0,39.5 33.0,41.0 C 30.5,42.5 27.5,42.5 24.5,41.0 C 24.5,38.0 25.5,35.0 27.5,32.5 C 29.5,30.0 30.5,27.0 30.5,24.0 C 30.5,21.5 29.0,19.5 26.5,19.0 L 21.0,19.0 L 21.0,37.5 Z" fill="#FFFFFF"/>
  
  <text x="58" y="31" font-size="22" font-weight="800" fill="#F59E0B"
        font-family="'Cabinet Grotesk','Plus Jakarta Sans',Arial,Helvetica,sans-serif"
        letter-spacing="-0.4">Bookando</text>
  
  <text x="58" y="44" font-size="8.5" font-weight="600" fill="#94A3B8"
        font-family="'IBM Plex Sans',Arial,Helvetica,sans-serif"
        letter-spacing="3.8">BOOK &amp; SCALE</text>
</svg>